<?xml version="1.0" standalone="no"?>
<!DOCTYPE svg PUBLIC "-//W3C//DTD SVG 20010904//EN"
 "http://www.w3.org/TR/2001/REC-SVG-20010904/DTD/svg10.dtd">
<svg version="1.0" xmlns="http://www.w3.org/2000/svg"
 width="256.000000pt" height="256.000000pt" viewBox="0 0 256.000000 256.000000"
 preserveAspectRatio="xMidYMid meet">
<metadata>
Created by potrace 1.14, written by Peter Selinger 2001-2017
</metadata>
<g transform="translate(0.000000,256.000000) scale(0.100000,-0.100000)"
fill="#000000" stroke="none">
<path d="M1033 2292 c-12 -8 -63 -124 -63 -145 0 -8 14 -20 30 -27 l30 -12 0
-103 0 -103 -140 -91 c-77 -50 -141 -86 -141 -81 -1 6 -2 37 -3 69 0 33 -4 63
-9 67 -14 14 -179 11 -193 -4 -11 -10 -14 -48 -14 -148 l0 -134 -160 -105
c-88 -57 -160 -108 -160 -111 0 -9 58 -103 78 -127 14 -16 17 -16 39 -2 27 18
24 41 27 -192 l3 -173 -34 -9 c-43 -12 -97 -53 -119 -90 -12 -21 -25 -28 -47
-29 -48 -1 -100 -30 -125 -68 -18 -28 -24 -53 -26 -110 -2 -41 1 -77 6 -81 6
-3 110 -5 231 -4 122 1 692 2 1267 4 l1045 2 0 61 c1 83 -9 116 -47 153 -28
28 -84 49 -114 43 -6 -1 -20 10 -29 25 -25 38 -71 76 -109 89 l-31 11 0 344 0
344 28 0 c25 0 31 7 58 68 17 38 28 74 26 80 -2 7 -75 43 -162 82 -87 38 -160
77 -162 85 -19 54 -55 120 -84 149 -77 77 -206 105 -309 66 -25 -9 -49 -17
-55 -17 -7 -1 -484 210 -515 228 -3 1 -11 0 -17 -4z"/>
</g>
</svg>
